# xmcd
#
# Track frame offsets: 
#        150
#        15670
#        30043
#        44870
#        58443
#        75439
#        88025
#        104147
#        115221
#        132314
#        149475
#        161731
#        176879
#        195032
#
# Disc length: 2845 seconds
#
# Revision: 0
# Processed by: cddbd v1.5.2PL0 Copyright (c) Steve Scherf et al.
# Submitted via: ExactAudioCopy v0.99pb5
#
DISCID=c20b1b0e
DTITLE=Romek Puchowski - Free
DYEAR=2013
DGENRE=Blues
TTITLE0=01.Thoughts like fish
TTITLE1=02.The cat is observing
TTITLE2=03.Jurata
TTITLE3=04.Big bad brother
TTITLE4=05.Fryzjer
TTITLE5=06.Walc dla Edyty
TTITLE6=07.Goin` away baby
TTITLE7=08.G³odne wybrze¿e
TTITLE8=09.Lena Lena
TTITLE9=10.Albo cacy albo lili
TTITLE10=11.Just your fool
TTITLE11=12.Nowi ludzie
TTITLE12=13.Voodoo child
TTITLE13=14.Johnny
EXTD=
EXTT0=
EXTT1=
EXTT2=
EXTT3=
EXTT4=
EXTT5=
EXTT6=
EXTT7=
EXTT8=
EXTT9=
EXTT10=
EXTT11=
EXTT12=
EXTT13=
PLAYORDER=
